<svg id="nav-logo" class="invert" xmlns="http://www.w3.org/2000/svg" viewBox="0 0 600 108">
  <path fill="#276791" d="M26.2 60.8c-5.5-9.2-8.5-18.2-10.1-26.2-.3-1.8-.6-3.5-.8-5.2-.3-3.5-.3-6.7-.2-9.6l-.6.6-.2.2-.6.6s0 .2-.2.2c-.6.8-1.2 1.5-1.8 2.3-4.1 5.2-7.5 10.9-9.9 17 .2.5.5 1.1.6 1.5 2.4 5.5 5.5 10.7 9.3 15.5.8 1.1 1.7 2 2.4 2.9l5.3.5c2-.1 4.1-.1 6.8-.3"></path>
  <path fill="#F58722" d="M34.5 64.6c-1.8.3-3.5.6-5.2.8-3.5.3-6.7.3-9.6.2h-.2c1.2 1.1 2.4 2.1 3.8 3.2 5.2 4.1 10.8 7.5 16.9 10 .5-.2 1.1-.5 1.5-.6 5.5-2.3 10.5-5.5 15.3-9.2 1.1-.8 2-1.7 3.1-2.4l.5-5.4c.2-1.4.2-3.7 0-6.4-9.3 5.4-18.2 8.5-26.1 9.8"></path>
  <path fill="#CC2029" d="M54.3 20.2c5.5 9.2 8.5 18.2 10.1 26.2.3 1.8.6 3.5.8 5.2.3 3.5.3 6.7.2 9.6v.2c1.1-1.2 2.1-2.4 3.2-3.8 4.1-5.2 7.5-10.9 9.9-17-.2-.5-.5-.9-.6-1.5-2.4-5.5-5.5-10.7-9.3-15.5-.8-1.1-1.7-2-2.4-2.9l-5.3-.5c-1.7-.1-3.8-.1-6.6 0"></path>
  <path fill="#156E39" d="M57.2 12.3C52 8.1 46.4 4.8 40.3 2.3c-.5.2-.9.5-1.5.6-5.5 2.4-10.7 5.5-15.4 9.3-.9.8-2 1.5-2.9 2.4l-.5 5.5c-.2 1.4-.2 3.5 0 6.3 9.2-5.5 18.1-8.6 26.1-10.1 1.8-.3 3.5-.6 5.2-.8 3.5-.3 6.7-.3 9.6-.2-1.3-.9-2.5-2-3.7-3"></path>
  <path fill="#062457" class="logo-text" d="M117.6 59.8c7.7 0 12-4.4 14.5-9l-6.5-3.3c-1.4 2.9-4.5 5.3-8.2 5.3-6.5 0-11-5.2-11-12.2s4.5-12.2 11-12.2c3.5 0 6.6 2.4 8.2 5.3l6.5-3.3c-2.4-4.6-7-9-14.5-9-10.5 0-18.7 7.7-18.7 19 .1 11.7 8.3 19.4 18.7 19.4zm25.5-.7V41.4c1-1.7 4-2.9 6.3-2.9.9 0 1.4 0 1.9.2v-6.8c-3.1 0-6.3 1.8-8 4.2v-3.7h-6.6v26.7h6.4zm23.9.7c8.4 0 13.4-6.5 13.4-14s-5.1-14-13.4-14c-8.4 0-13.3 6.5-13.3 14s5 14 13.3 14zm0-6.3c-4.2 0-6.5-3.5-6.5-7.7 0-4.1 2.3-7.7 6.5-7.7s6.5 3.5 6.5 7.7c0 4.1-2.3 7.7-6.5 7.7zm27.6 6.3c7 0 11-3.7 11-8.5 0-10.7-15-7.6-15-11.4 0-1.5 1.6-2.6 4-2.6 3.1 0 5.9 1.5 7.5 3.1l2.6-5c-2.4-2-5.9-3.7-10.1-3.7-6.6 0-10.3 3.9-10.3 8.5 0 10.5 15 7 15 11.2 0 1.7-1.4 2.8-4.2 2.8-3.1 0-6.8-1.8-8.7-3.7l-2.8 5.2c2.3 2.5 6.5 4.1 11 4.1zm25 0c7 0 11-3.7 11-8.5 0-10.7-15-7.6-15-11.4 0-1.5 1.6-2.6 4-2.6 3.1 0 5.9 1.5 7.5 3.1l2.6-5.2c-2.4-2-5.9-3.7-10.1-3.7-6.6 0-10.3 3.9-10.3 8.5 0 10.5 15 7 15 11.2 0 1.7-1.4 2.8-4.2 2.8-3.1 0-6.8-1.8-8.7-3.7l-3 5.2c2.4 2.7 6.6 4.3 11.2 4.3zm228.8-.7V29.2h10.1v-7h-27.9V29h10.1v30l7.7.1zm21.3.7c3.8 0 7.9-1.3 10.5-3.7l-3-4.6c-1.6 1.7-4.5 2.6-6.6 2.6-4.4 0-6.8-2.8-7.3-5.9h18.9v-1.7c0-8.7-5.1-14.6-12.7-14.6s-13.1 6.3-13.1 14c-.3 8.4 5.6 13.9 13.3 13.9zm5.7-16.6H463c.3-2.6 2.1-5.7 6.1-5.7 4.4 0 6.2 3.1 6.3 5.7zm21.5 16.6c7 0 11-3.7 11-8.5 0-10.7-15-7.6-15-11.4 0-1.5 1.6-2.6 4-2.6 3.1 0 5.9 1.5 7.5 3.1l2.6-5c-2.4-2-5.9-3.7-10.1-3.7-6.6 0-10.3 3.9-10.3 8.5 0 10.5 15 7 15 11.2 0 1.7-1.4 2.8-4.2 2.8-3.1 0-6.8-1.8-8.7-3.7l-3 5.2c2.5 2.5 6.7 4.1 11.2 4.1zm24.3 0c2.8 0 4.5-.7 5.6-1.7l-1.4-5.3c-.3.4-1.4.7-2.3.7-1.4 0-2.3-1.3-2.3-2.9v-12h5.1v-6.3h-5.1V25h-6.6v7.4H510v6.3h4.2v13.8c-.2 4.7 2.3 7.3 7 7.3zm12.6-30.2c2.3 0 4-1.8 4-4.2s-1.7-4.1-4-4.1c-2.1 0-3.8 1.8-3.8 4.1s1.7 4.2 3.8 4.2zm3.3 29.5V32.3h-6.6V59h6.6v.1zm30.4 0V40.3c0-5.2-2.6-8.5-8.2-8.5-4 0-7.2 2-8.9 4.1v-3.5h-6.6v26.7h6.6V41c1.2-1.5 3.1-3.1 5.8-3.1 2.8 0 4.7 1.3 4.7 5v16.2h6.6zM584.4 70c6.3 0 13.6-2.4 13.6-12.5V32.3h-6.6v3.5c-2.1-2.8-4.9-4.1-7.9-4.1-6.5 0-11.2 4.8-11.2 13.6s4.9 13.6 11.2 13.6c3.1 0 5.9-1.5 7.9-4.1v2.6c0 5.3-3.8 6.8-7 6.8-3.1 0-5.9-.9-7.9-3.3l-3 5c3.2 2.9 6.5 4.1 10.9 4.1zm1.2-17.4c-3.8 0-6.5-2.8-6.5-7.4s2.6-7.4 6.5-7.4c2.1 0 4.5 1.3 5.8 2.9v8.8c-1.1 1.8-3.5 3.1-5.8 3.1zM255 59.1c6.6 0 10.1-4.4 10.1-10 0-4.6-3-8.5-6.6-9 3.3-.7 5.9-3.9 5.9-8.5 0-5-3.3-9.4-10.1-9.4H236v36.9h19zM252.8 37h-9.3v-7.7h9.3c2.4 0 4 1.7 4 3.9.1 2.1-1.4 3.8-4 3.8zm.3 15.3h-9.6v-8.5h9.6c2.8 0 4.5 1.8 4.5 4.2 0 2.6-1.7 4.3-4.5 4.3zm24.3 6.8h-6.6V32.3h6.6V36c1.7-2.4 4.9-4.2 8-4.2v6.6c-.3-.2-1-.2-1.7-.2-2.3 0-5.2 1.5-6.3 3.1v17.8zm23.9.7c8.4 0 13.4-6.5 13.4-14s-5.1-14-13.4-14-13.4 6.5-13.4 14c-.1 7.6 5 14 13.4 14zm0-6.3c-4.2 0-6.5-3.5-6.5-7.7 0-4.1 2.3-7.7 6.5-7.7s6.5 3.5 6.5 7.7c-.1 4.1-2.3 7.7-6.5 7.7zm47.6 5.6h-7l-5.4-18.3-5.4 18.3H324l-7.7-26.7h7l4.7 18.1 5.4-18.1h5.9l5.6 18.1 4.7-18.1h7l-7.7 26.7zm20.1.7c-4.4 0-8.6-1.7-11.3-4.2l3.1-5c1.9 1.8 5.6 3.7 8.7 3.7 2.8 0 4.2-1.1 4.2-2.8 0-4.2-15-.7-15-11.2 0-4.6 3.7-8.5 10.3-8.5 4.2 0 7.7 1.7 10.1 3.7l-2.6 5c-1.6-1.7-4.4-3.1-7.5-3.1-2.4 0-4 1.1-4 2.6 0 3.9 15 .7 15 11.4 0 4.7-4 8.4-11 8.4zm27.8 0c3.8 0 7.9-1.3 10.5-3.7l-3-4.6c-1.6 1.7-4.5 2.6-6.6 2.6-4.4 0-6.8-2.8-7.3-5.9h18.9v-1.7c0-8.7-5.1-14.6-12.7-14.6-7.7 0-13.1 6.3-13.1 14-.2 8.4 5.6 13.9 13.3 13.9zm5.9-16.6h-12.4c.2-2.6 2.1-5.7 6.1-5.7 4.4 0 6.1 3.1 6.3 5.7zm17.8 15.9H414V32.3h6.6V36c1.7-2.4 4.9-4.2 8-4.2v6.6c-.5-.2-1-.2-1.9-.2-2.3 0-5.2 1.5-6.3 3.1v17.8h.1z"></path>
  <path fill="#BBBEC3" class="sb-text" d="M109.5 105.7c-1.8 0-4.1-.4-5.9-1-.5-.1-.6-.3-.6-.6 0-.1.1-.3.1-.5l.8-2.3c.1-.3.2-.5.6-.5.1 0 .3 0 .5.1 1.4.5 3 .9 4.4.9 1.2 0 2.7-.6 2.7-2 0-1.1-.9-1.6-1.7-2l-3.8-1.8c-2.1-1-3.5-2.7-3.5-5.1 0-3.6 3.6-5.7 7-5.7 2 0 3.8.4 5.6 1.1.5.2.6.4.6.7 0 .1-.1.3-.1.4l-.9 2.2c-.1.4-.3.5-.6.5-.1 0-.3-.1-.5-.1-1.2-.5-2.7-.9-3.9-.9-1.1 0-2.4.4-2.4 1.8 0 .9 1.1 1.5 1.8 1.8l3.3 1.5c2.2 1 3.7 2.6 3.7 5.1 0 4-3.3 6.4-7.2 6.4zM137.7 105.3c-.7 0-.9-.4-.9-1.2l-.3-9.8h-.1l-4.3 10.3c-.2.6-.6.6-1 .6H130c-.5 0-.9-.1-1.1-.7L124 94.4l-.2 10c0 .8-.4.9-1 .9h-2.3c-.7 0-1-.3-1-.9l.8-17.9c0-.7.3-.9.9-.9h2c.7 0 .9.2 1.2.8l6.3 12.9h.1l5.7-12.9c.2-.5.5-.8 1.2-.8h2c.6 0 .8.2.8.7l.9 18.1c0 .6-.2.9-.8.9h-2.9zM162.4 105.3h-3.2c-.7 0-.9-.3-1.1-.8l-1.1-3.3h-7l-1.1 3.4c-.1.4-.3.7-.9.7h-3.2c-.3 0-.5-.2-.5-.5 0-.1 0-.2.1-.3l6.8-18.2c.2-.4.4-.7 1-.7h2.9c.6 0 .9.3 1 .6l6.9 18.1c.1.2.1.3.1.4-.1.4-.3.6-.7.6zm-6.6-7.5l-1.8-5.6c-.2-.6-.4-1.2-.5-1.6h-.1c-.1.5-.3 1.1-.5 1.7l-1.8 5.6h4.7zM176.1 104.7l-4-6.1h-1.8v5.9c0 .5-.2.8-.8.8h-3c-.6 0-.8-.3-.8-.8v-18c0-.8.2-1 .9-1h4.3c2.4 0 5.3.2 7.1 2.1 1 1.1 1.5 2.7 1.5 4.2 0 2.5-1.1 4.6-3.4 5.8v.1l4.7 6.7c.1.2.2.3.2.5 0 .3-.2.4-.5.4h-3.3c-.4 0-.8-.2-1.1-.6zM171.5 89h-1.1v6.3h1.4c2.1 0 3.4-1.1 3.4-3.2 0-2.3-1.6-3.1-3.7-3.1zM197.9 86.3l-.2 2.2c-.1.6-.4.7-1 .7h-5v15.3c0 .6-.1.7-.7.7h-3.2c-.6 0-.7-.1-.7-.7V89.2h-5.2c-.6 0-.8-.3-.8-.9v-2.1c0-.5.3-.7.8-.7h15.3c.6.1.8.3.7.8zM207.2 105.3h-5.7c-.7 0-.9-.3-.9-1V86.4c0-.7.3-.8.9-.8h4.6c5.1 0 7.5 1.5 7.5 4.8 0 1.9-1.1 3.7-3.1 4.1 2.7.3 4.6 2.1 4.6 4.9.2 4.8-3.8 5.9-7.9 5.9zm-.7-16.3h-1.4v4.4h1.1c2.1 0 3.1-.6 3.1-2.4 0-1.4-1-2-2.8-2zm2.8 7.9c-.8-.4-1.6-.4-2.8-.4h-1.4v5.3h1.8c.9 0 1.7-.1 2.3-.3.9-.3 1.5-1.2 1.5-2.3 0-1.1-.6-1.9-1.4-2.3zM229.7 85.6c.6 0 .7.3.7.7l-.3 2.3c-.1.6-.4.7-1.1.7h-6.9v4.2h6.5c.6 0 .9.3.9.8v2.1c0 .6-.3.8-.8.8h-6.5v4.5h7.4c.5 0 .8.2.8.8v2.1c0 .5-.3.8-.8.8h-11c-.7 0-.9-.2-.9-.9V86.3c0-.5.3-.8.7-.8h11.3zM250.7 105.3h-3.2c-.7 0-.9-.3-1.1-.8l-1.1-3.3h-7l-1.1 3.4c-.1.4-.3.7-.9.7H233c-.3 0-.5-.2-.5-.5 0-.1 0-.2.1-.3l6.8-18.2c.2-.4.4-.7 1-.7h2.9c.6 0 .9.3 1 .6l6.9 18.1c.1.2.1.3.1.4 0 .4-.2.6-.6.6zm-6.7-7.5l-1.8-5.6c-.2-.6-.4-1.2-.5-1.6h-.1c-.1.5-.3 1.1-.5 1.7l-1.8 5.6h4.7zM263.9 104.7l-4-6.1h-1.8v5.9c0 .5-.2.8-.8.8h-3c-.6 0-.8-.3-.8-.8v-18c0-.8.2-1 .9-1h4.3c2.4 0 5.3.2 7.1 2.1 1 1.1 1.5 2.7 1.5 4.2 0 2.5-1.1 4.6-3.4 5.8v.1l4.7 6.7c.1.2.2.3.2.5 0 .3-.2.4-.5.4H265c-.4 0-.8-.2-1.1-.6zM259.3 89h-1.1v6.3h1.4c2.1 0 3.4-1.1 3.4-3.2 0-2.3-1.6-3.1-3.7-3.1z"></path>
</svg>